<svg width="80" height="80" viewBox="0 0 80 80" fill="none" xmlns="http://www.w3.org/2000/svg">
<g clip-path="url(#clip0_1208_15442)">
<path fill-rule="evenodd" clip-rule="evenodd" d="M13.1645 10.3364C28.3739 -3.44558 51.6266 -3.44548 66.8359 10.3368L62.8753 14.2974C49.859 2.69182 30.1414 2.69172 17.1251 14.297L13.1645 10.3364ZM69.6642 13.1652L65.7036 17.1259C77.3082 30.1421 77.308 49.8589 65.703 62.8749L69.6636 66.8355C83.4453 51.6264 83.4455 28.3745 69.6642 13.1652ZM17.1258 65.7036C30.1419 77.3081 49.8586 77.308 62.8745 65.7033L66.8351 69.6639C51.6261 83.4453 28.3744 83.4454 13.1652 69.6642L17.1258 65.7036ZM14.2974 62.8752L10.3367 66.8359C-3.44536 51.6267 -3.44558 28.3743 10.3361 13.1649L14.2967 17.1255C2.69172 30.1418 2.69194 49.8592 14.2974 62.8752ZM64.9281 23.2984C63.859 21.7067 62.621 20.1947 61.214 18.7877C51.8935 9.46722 37.966 7.56167 26.7617 13.071L29.5667 17.9294C38.623 13.6485 49.7694 15.2529 57.2591 22.7426C58.3123 23.7959 59.2492 24.9215 60.0697 26.1034L64.9281 23.2984ZM62.072 29.5662L66.9303 26.7612C72.4401 37.9656 70.5347 51.8935 61.214 61.2141C59.8067 62.6214 58.2944 63.8596 56.7024 64.9288L53.8974 60.0704C55.0796 59.2498 56.2055 58.3127 57.2591 57.2592C64.7489 49.7693 66.3532 38.6226 62.072 29.5662ZM50.4345 62.0726C41.3783 66.3532 30.2321 64.7488 22.7425 57.2592C21.6887 56.2053 20.7514 55.0791 19.9305 53.8965L15.0722 56.7014C16.1416 58.2939 17.38 59.8065 18.7876 61.2141C28.108 70.5345 42.0353 72.4401 53.2395 66.9309L50.4345 62.0726ZM13.0702 53.2385L17.9286 50.4335C13.6486 41.3774 15.2532 30.2319 22.7425 22.7426C23.796 21.6892 24.9217 20.7522 26.1039 19.9316L23.2989 15.0732C21.7069 16.1424 20.1948 17.3805 18.7876 18.7877C9.46753 28.1078 7.56173 42.0344 13.0702 53.2385ZM54.1423 25.8577C57.0953 28.8107 58.9318 32.4574 59.6519 36.2733L54.0409 36.7642C53.4564 34.2166 52.1719 31.7972 50.1874 29.8127C47.5647 27.19 44.1824 25.7899 40.7487 25.6123L40.2578 20.0015C45.2901 20.0659 50.3026 22.018 54.1423 25.8577ZM36.2729 20.3483C32.4573 21.0684 28.8109 22.9049 25.858 25.8577C22.0185 29.6972 20.0664 34.7094 20.0018 39.7414L25.6127 39.2505C25.7904 35.8171 27.1905 32.4351 29.813 29.8127C31.7973 27.8283 34.2165 26.5438 36.7638 25.9592L36.2729 20.3483ZM20.3484 43.7263C21.0684 47.5422 22.905 51.189 25.858 54.142C29.6975 57.9815 34.7096 59.9335 39.7415 59.9982L39.2506 54.3873C35.8173 54.2096 32.4354 52.8095 29.813 50.1871C27.8284 48.2025 26.5439 45.783 25.9593 43.2354L20.3484 43.7263ZM54.1423 54.142C51.1892 57.0951 47.5424 58.9316 43.7265 59.6516L43.2356 54.0407C45.7832 53.4562 48.2028 52.1716 50.1874 50.187C52.8098 47.5646 54.2099 44.1826 54.3877 40.7491L59.9985 40.2582C59.9339 45.2902 57.9818 50.3025 54.1423 54.142Z" fill="url(#paint0_linear_1208_15442)"/>
</g>
<defs>
<linearGradient id="paint0_linear_1208_15442" x1="11.8936" y1="68.5632" x2="82.5557" y2="-2.09887" gradientUnits="userSpaceOnUse">
<stop stop-color="#5565F7"/>
<stop offset="1" stop-color="#9EA7FA"/>
</linearGradient>
<clipPath id="clip0_1208_15442">
<rect width="80" height="80" fill="white"/>
</clipPath>
</defs>
</svg>
